<svg xmlns="http://www.w3.org/2000/svg" viewBox="0 0 100 100">
    <!-- Huella de perro con el color principal del proyecto (color-principal: #00b527) -->
    <g fill="#00b527">
        <!-- Dedos -->
        <ellipse cx="21" cy="41" rx="10" ry="14" transform="rotate(-24 21 41)"/>
        <ellipse cx="39" cy="26" rx="9" ry="15" transform="rotate(-8 39 26)"/>
        <ellipse cx="63" cy="26" rx="9" ry="15" transform="rotate(8 63 26)"/>
        <ellipse cx="80" cy="41" rx="10" ry="14" transform="rotate(24 80 41)"/>
        <!-- Almohadilla principal -->
        <path d="M50 50
                 C61 50 67 57 71 65
                 C75 73 74 84 66 89
                 C59 93 54 89 50 89
                 C46 89 41 93 34 89
                 C26 84 25 73 29 65
                 C33 57 39 50 50 50 Z"/>
    </g>
</svg>
